<svg width="184" height="7" viewBox="0 0 184 7" fill="none" xmlns="http://www.w3.org/2000/svg">
<path d="M2.76562 0.816406L0.882812 6H0.113281L2.28125 0.3125H2.77734L2.76562 0.816406ZM4.34375 6L2.45703 0.816406L2.44531 0.3125H2.94141L5.11719 6H4.34375ZM4.24609 3.89453V4.51172H1.05078V3.89453H4.24609ZM15.818 6H14.6305L14.6383 5.38672H15.818C16.2242 5.38672 16.5628 5.30208 16.8336 5.13281C17.1044 4.96094 17.3076 4.72135 17.443 4.41406C17.581 4.10417 17.65 3.74219 17.65 3.32812V2.98047C17.65 2.65495 17.6109 2.36589 17.5328 2.11328C17.4547 1.85807 17.3401 1.64323 17.1891 1.46875C17.038 1.29167 16.8531 1.15755 16.6344 1.06641C16.4182 0.97526 16.1695 0.929688 15.8883 0.929688H14.607V0.3125H15.8883C16.2607 0.3125 16.6005 0.375 16.9078 0.5C17.2151 0.622396 17.4794 0.800781 17.7008 1.03516C17.9247 1.26693 18.0966 1.54818 18.2164 1.87891C18.3362 2.20703 18.3961 2.57682 18.3961 2.98828V3.32812C18.3961 3.73958 18.3362 4.11068 18.2164 4.44141C18.0966 4.76953 17.9234 5.04948 17.6969 5.28125C17.4729 5.51302 17.2021 5.69141 16.8844 5.81641C16.5693 5.9388 16.2138 6 15.818 6ZM15.0328 0.3125V6H14.2789V0.3125H15.0328ZM29.468 6H28.2805L28.2883 5.38672H29.468C29.8742 5.38672 30.2128 5.30208 30.4836 5.13281C30.7544 4.96094 30.9576 4.72135 31.093 4.41406C31.231 4.10417 31.3 3.74219 31.3 3.32812V2.98047C31.3 2.65495 31.2609 2.36589 31.1828 2.11328C31.1047 1.85807 30.9901 1.64323 30.8391 1.46875C30.688 1.29167 30.5031 1.15755 30.2844 1.06641C30.0682 0.97526 29.8195 0.929688 29.5383 0.929688H28.257V0.3125H29.5383C29.9107 0.3125 30.2505 0.375 30.5578 0.5C30.8651 0.622396 31.1294 0.800781 31.3508 1.03516C31.5747 1.26693 31.7466 1.54818 31.8664 1.87891C31.9862 2.20703 32.0461 2.57682 32.0461 2.98828V3.32812C32.0461 3.73958 31.9862 4.11068 31.8664 4.44141C31.7466 4.76953 31.5734 5.04948 31.3469 5.28125C31.1229 5.51302 30.8521 5.69141 30.5344 5.81641C30.2193 5.9388 29.8638 6 29.468 6ZM28.6828 0.3125V6H27.9289V0.3125H28.6828ZM42.3875 0.3125V6H41.6336V0.3125H42.3875ZM54.143 0.3125V6H53.4008V0.3125H54.143ZM55.9711 0.3125V0.929688H51.5766V0.3125H55.9711ZM66.0234 0.3125V6H65.2695V0.3125H66.0234ZM80.1734 2.97656V3.33594C80.1734 3.76302 80.12 4.14583 80.0133 4.48438C79.9065 4.82292 79.7529 5.11068 79.5523 5.34766C79.3518 5.58464 79.1109 5.76562 78.8297 5.89062C78.551 6.01562 78.2385 6.07812 77.8922 6.07812C77.5562 6.07812 77.2477 6.01562 76.9664 5.89062C76.6878 5.76562 76.4456 5.58464 76.2398 5.34766C76.0367 5.11068 75.8792 4.82292 75.7672 4.48438C75.6552 4.14583 75.5992 3.76302 75.5992 3.33594V2.97656C75.5992 2.54948 75.6539 2.16797 75.7633 1.83203C75.8753 1.49349 76.0328 1.20573 76.2359 0.96875C76.4391 0.729167 76.6799 0.546875 76.9586 0.421875C77.2398 0.296875 77.5484 0.234375 77.8844 0.234375C78.2307 0.234375 78.5432 0.296875 78.8219 0.421875C79.1031 0.546875 79.344 0.729167 79.5445 0.96875C79.7477 1.20573 79.9026 1.49349 80.0094 1.83203C80.1187 2.16797 80.1734 2.54948 80.1734 2.97656ZM79.4273 3.33594V2.96875C79.4273 2.63021 79.3922 2.33073 79.3219 2.07031C79.2542 1.8099 79.1539 1.59115 79.0211 1.41406C78.8883 1.23698 78.7255 1.10286 78.5328 1.01172C78.3427 0.920573 78.1266 0.875 77.8844 0.875C77.65 0.875 77.4378 0.920573 77.2477 1.01172C77.0602 1.10286 76.8987 1.23698 76.7633 1.41406C76.6305 1.59115 76.5276 1.8099 76.4547 2.07031C76.3818 2.33073 76.3453 2.63021 76.3453 2.96875V3.33594C76.3453 3.67708 76.3818 3.97917 76.4547 4.24219C76.5276 4.5026 76.6318 4.72266 76.7672 4.90234C76.9052 5.07943 77.068 5.21354 77.2555 5.30469C77.4456 5.39583 77.6578 5.44141 77.8922 5.44141C78.137 5.44141 78.3544 5.39583 78.5445 5.30469C78.7346 5.21354 78.8948 5.07943 79.025 4.90234C79.1578 4.72266 79.2581 4.5026 79.3258 4.24219C79.3935 3.97917 79.4273 3.67708 79.4273 3.33594ZM94.0773 0.3125V6H93.3195L90.4562 1.61328V6H89.7023V0.3125H90.4562L93.3312 4.71094V0.3125H94.0773ZM105.989 0.816406L104.106 6H103.337L105.505 0.3125H106.001L105.989 0.816406ZM107.567 6L105.68 0.816406L105.669 0.3125H106.165L108.341 6H107.567ZM107.47 3.89453V4.51172H104.274V3.89453H107.47ZM120.952 5.38672V6H118.108V5.38672H120.952ZM118.256 0.3125V6H117.502V0.3125H118.256ZM142.545 0.3125V6H141.802V0.3125H142.545ZM144.373 0.3125V0.929688H139.978V0.3125H144.373ZM157.23 5.38672V6H154.218V5.38672H157.23ZM154.37 0.3125V6H153.616V0.3125H154.37ZM156.831 2.75781V3.37109H154.218V2.75781H156.831ZM157.191 0.3125V0.929688H154.218V0.3125H157.191ZM167.052 0.3125L168.419 2.49219L169.786 0.3125H170.665L168.868 3.12891L170.708 6H169.821L168.419 3.77734L167.016 6H166.13L167.97 3.12891L166.173 0.3125H167.052ZM182.08 0.3125V6H181.338V0.3125H182.08ZM183.909 0.3125V0.929688H179.514V0.3125H183.909Z" fill="black"/>
</svg>
