<svg width="24" height="19" viewBox="0 0 24 19" fill="none" xmlns="http://www.w3.org/2000/svg">
<path d="M23.8166 2.48431C23.7454 2.39464 23.6558 2.3222 23.554 2.27219C23.4523 2.22219 23.341 2.19585 23.2281 2.19509H7.31705L7.8138 3.75846H22.227L20.1865 13.1387H8.72322L5.23074 1.8277C5.19296 1.70768 5.12736 1.59878 5.03953 1.51031C4.9517 1.42184 4.84425 1.35641 4.72635 1.3196L1.59305 0.33468C1.49671 0.304398 1.39548 0.293822 1.29513 0.303557C1.19479 0.313291 1.09731 0.343146 1.00825 0.391416C0.828386 0.488901 0.693748 0.655477 0.633956 0.854501C0.574165 1.05352 0.594117 1.26869 0.689424 1.45267C0.784731 1.63664 0.947586 1.77436 1.14216 1.83551L3.88571 2.69537L7.39348 14.0298L6.14016 15.0773L6.04081 15.1789C5.73079 15.5443 5.55507 16.0089 5.54391 16.4926C5.53275 16.9763 5.68685 17.4488 5.97967 17.8288C6.18797 18.0879 6.45265 18.2935 6.75256 18.4293C7.05246 18.565 7.37926 18.627 7.70681 18.6105H20.4616C20.6643 18.6105 20.8587 18.5281 21.002 18.3815C21.1453 18.2349 21.2258 18.0361 21.2258 17.8288C21.2258 17.6215 21.1453 17.4226 21.002 17.276C20.8587 17.1295 20.6643 17.0471 20.4616 17.0471H7.58453C7.49653 17.044 7.41079 17.0178 7.33559 16.9709C7.2604 16.9241 7.19829 16.8582 7.15527 16.7796C7.11224 16.701 7.08976 16.6124 7.08999 16.5223C7.09022 16.4323 7.11315 16.3438 7.15657 16.2654L8.99834 14.702H20.7979C20.9745 14.7065 21.1472 14.6481 21.2866 14.537C21.4259 14.4258 21.5233 14.2687 21.5621 14.0923L23.9847 3.14875C24.0079 3.03221 24.0049 2.91179 23.9757 2.79665C23.9466 2.6815 23.8921 2.57468 23.8166 2.48431Z" fill="white"/>
</svg>
