<svg width="3" height="4" viewBox="0 0 3 4" fill="none" xmlns="http://www.w3.org/2000/svg">
<path d="M0.252464 2.34063C0.0877405 2.09353 -0.000118525 1.80307 0 1.50597C0.000344558 1.10773 0.158512 0.725906 0.439759 0.444364C0.721006 0.162822 1.10294 0.00458014 1.5006 0.00439453C1.79727 0.0045134 2.08725 0.0927303 2.33385 0.25789C2.58046 0.42305 2.77263 0.657735 2.88605 0.932266C2.99947 1.2068 3.02905 1.50885 2.97106 1.80022C2.91307 2.09159 2.7701 2.35919 2.56024 2.56919C2.35037 2.77919 2.08304 2.92215 1.79205 2.97999C1.50105 3.03784 1.19947 3.00797 0.925423 2.89417C0.651379 2.78036 0.417187 2.58773 0.252464 2.34063Z" fill="#2A3B45"/>
</svg>
