<svg width="186" height="27" viewBox="0 0 186 27" fill="none" xmlns="http://www.w3.org/2000/svg">
<path d="M4.0332 1.11719L10.4932 13.6099L16.9702 1.11719H20.7129L12.1338 16.7031V26H8.83545V16.7031L0.256348 1.11719H4.0332ZM42.5537 12.7725V14.3447C42.5537 16.2132 42.3201 17.888 41.853 19.3691C41.3859 20.8503 40.7137 22.1092 39.8364 23.146C38.9591 24.1828 37.9053 24.9746 36.6748 25.5215C35.4557 26.0684 34.0885 26.3418 32.5732 26.3418C31.1035 26.3418 29.7534 26.0684 28.5229 25.5215C27.3039 24.9746 26.2443 24.1828 25.3442 23.146C24.4556 22.1092 23.7663 20.8503 23.2764 19.3691C22.7865 17.888 22.5415 16.2132 22.5415 14.3447V12.7725C22.5415 10.904 22.7808 9.23486 23.2593 7.76514C23.7492 6.28402 24.4385 5.02507 25.3271 3.98828C26.2158 2.9401 27.2697 2.14258 28.4888 1.5957C29.7192 1.04883 31.0693 0.775391 32.5391 0.775391C34.0544 0.775391 35.4215 1.04883 36.6406 1.5957C37.8711 2.14258 38.925 2.9401 39.8022 3.98828C40.6909 5.02507 41.3688 6.28402 41.8359 7.76514C42.3145 9.23486 42.5537 10.904 42.5537 12.7725ZM39.2896 14.3447V12.7383C39.2896 11.2572 39.1357 9.94694 38.8281 8.80762C38.5319 7.66829 38.0933 6.71126 37.5122 5.93652C36.9312 5.16178 36.2191 4.57503 35.376 4.17627C34.5443 3.77751 33.5986 3.57812 32.5391 3.57812C31.5137 3.57812 30.5851 3.77751 29.7534 4.17627C28.9331 4.57503 28.2267 5.16178 27.6343 5.93652C27.0532 6.71126 26.6032 7.66829 26.2842 8.80762C25.9652 9.94694 25.8057 11.2572 25.8057 12.7383V14.3447C25.8057 15.8372 25.9652 17.1589 26.2842 18.3096C26.6032 19.4489 27.0589 20.4116 27.6514 21.1978C28.2552 21.9725 28.9673 22.5592 29.7876 22.958C30.6193 23.3568 31.5479 23.5562 32.5732 23.5562C33.6442 23.5562 34.5955 23.3568 35.4272 22.958C36.259 22.5592 36.9596 21.9725 37.5293 21.1978C38.1104 20.4116 38.549 19.4489 38.8452 18.3096C39.1414 17.1589 39.2896 15.8372 39.2896 14.3447ZM61.7285 1.11719H65.0098V17.9507C65.0098 19.8192 64.5939 21.3743 63.7622 22.6162C62.9305 23.8581 61.8254 24.7923 60.4468 25.4189C59.0796 26.0342 57.5928 26.3418 55.9863 26.3418C54.3001 26.3418 52.7734 26.0342 51.4062 25.4189C50.0505 24.7923 48.9738 23.8581 48.1763 22.6162C47.3901 21.3743 46.9971 19.8192 46.9971 17.9507V1.11719H50.2612V17.9507C50.2612 19.2495 50.5005 20.3205 50.979 21.1636C51.4575 22.0067 52.124 22.6333 52.9785 23.0435C53.8444 23.4536 54.847 23.6587 55.9863 23.6587C57.137 23.6587 58.1396 23.4536 58.9941 23.0435C59.86 22.6333 60.5322 22.0067 61.0107 21.1636C61.4893 20.3205 61.7285 19.2495 61.7285 17.9507V1.11719ZM70.188 1.11719H78.4253C80.2938 1.11719 81.8717 1.40202 83.1592 1.97168C84.458 2.54134 85.4435 3.38444 86.1157 4.50098C86.7993 5.60612 87.1411 6.96761 87.1411 8.58545C87.1411 9.72477 86.9076 10.7673 86.4404 11.7129C85.9847 12.6471 85.3239 13.4447 84.458 14.1055C83.6035 14.7549 82.5781 15.2391 81.3818 15.5581L80.459 15.917H72.7173L72.6831 13.2339H78.5278C79.7127 13.2339 80.6982 13.0288 81.4844 12.6187C82.2705 12.1971 82.863 11.6331 83.2617 10.9268C83.6605 10.2204 83.8599 9.43994 83.8599 8.58545C83.8599 7.62842 83.6719 6.79102 83.2959 6.07324C82.9199 5.35547 82.3275 4.8029 81.5186 4.41553C80.721 4.01676 79.6899 3.81738 78.4253 3.81738H73.4863V26H70.188V1.11719ZM84.7314 26L78.6816 14.7207L82.1167 14.7036L88.252 25.7949V26H84.7314ZM115.527 23.3169V26H103.086V23.3169H115.527ZM103.735 1.11719V26H100.437V1.11719H103.735ZM137.334 12.7725V14.3447C137.334 16.2132 137.1 17.888 136.633 19.3691C136.166 20.8503 135.494 22.1092 134.617 23.146C133.739 24.1828 132.686 24.9746 131.455 25.5215C130.236 26.0684 128.869 26.3418 127.354 26.3418C125.884 26.3418 124.534 26.0684 123.303 25.5215C122.084 24.9746 121.025 24.1828 120.125 23.146C119.236 22.1092 118.547 20.8503 118.057 19.3691C117.567 17.888 117.322 16.2132 117.322 14.3447V12.7725C117.322 10.904 117.561 9.23486 118.04 7.76514C118.529 6.28402 119.219 5.02507 120.107 3.98828C120.996 2.9401 122.05 2.14258 123.269 1.5957C124.5 1.04883 125.85 0.775391 127.319 0.775391C128.835 0.775391 130.202 1.04883 131.421 1.5957C132.651 2.14258 133.705 2.9401 134.583 3.98828C135.471 5.02507 136.149 6.28402 136.616 7.76514C137.095 9.23486 137.334 10.904 137.334 12.7725ZM134.07 14.3447V12.7383C134.07 11.2572 133.916 9.94694 133.608 8.80762C133.312 7.66829 132.874 6.71126 132.292 5.93652C131.711 5.16178 130.999 4.57503 130.156 4.17627C129.325 3.77751 128.379 3.57812 127.319 3.57812C126.294 3.57812 125.365 3.77751 124.534 4.17627C123.713 4.57503 123.007 5.16178 122.415 5.93652C121.833 6.71126 121.383 7.66829 121.064 8.80762C120.745 9.94694 120.586 11.2572 120.586 12.7383V14.3447C120.586 15.8372 120.745 17.1589 121.064 18.3096C121.383 19.4489 121.839 20.4116 122.432 21.1978C123.035 21.9725 123.748 22.5592 124.568 22.958C125.4 23.3568 126.328 23.5562 127.354 23.5562C128.424 23.5562 129.376 23.3568 130.208 22.958C131.039 22.5592 131.74 21.9725 132.31 21.1978C132.891 20.4116 133.329 19.4489 133.625 18.3096C133.922 17.1589 134.07 15.8372 134.07 14.3447ZM160.662 13.6099V22.7188C160.354 23.1745 159.864 23.6872 159.192 24.2568C158.52 24.8151 157.591 25.305 156.406 25.7266C155.233 26.1367 153.717 26.3418 151.86 26.3418C150.345 26.3418 148.949 26.0798 147.673 25.5557C146.409 25.0202 145.309 24.2454 144.375 23.2314C143.452 22.2061 142.734 20.9642 142.222 19.5059C141.72 18.0361 141.47 16.3727 141.47 14.5156V12.5845C141.47 10.7274 141.686 9.06966 142.119 7.61133C142.563 6.15299 143.213 4.91683 144.067 3.90283C144.922 2.87744 145.97 2.1027 147.212 1.57861C148.454 1.04313 149.878 0.775391 151.484 0.775391C153.387 0.775391 154.976 1.10579 156.252 1.7666C157.54 2.41602 158.542 3.31608 159.26 4.4668C159.989 5.61751 160.457 6.92773 160.662 8.39746H157.363C157.215 7.4974 156.919 6.67708 156.475 5.93652C156.042 5.19596 155.421 4.60352 154.612 4.15918C153.803 3.70345 152.76 3.47559 151.484 3.47559C150.334 3.47559 149.337 3.68636 148.494 4.10791C147.651 4.52946 146.956 5.1333 146.409 5.91943C145.862 6.70557 145.452 7.6569 145.178 8.77344C144.916 9.88997 144.785 11.1489 144.785 12.5503V14.5156C144.785 15.9512 144.95 17.2329 145.281 18.3608C145.623 19.4888 146.107 20.4515 146.733 21.249C147.36 22.0352 148.106 22.6333 148.972 23.0435C149.849 23.4536 150.818 23.6587 151.877 23.6587C153.051 23.6587 154.002 23.5618 154.731 23.3682C155.461 23.1631 156.03 22.9238 156.44 22.6504C156.851 22.3656 157.164 22.0978 157.38 21.8472V16.2759H151.621V13.6099H160.662ZM185.288 12.7725V14.3447C185.288 16.2132 185.055 17.888 184.587 19.3691C184.12 20.8503 183.448 22.1092 182.571 23.146C181.694 24.1828 180.64 24.9746 179.409 25.5215C178.19 26.0684 176.823 26.3418 175.308 26.3418C173.838 26.3418 172.488 26.0684 171.257 25.5215C170.038 24.9746 168.979 24.1828 168.079 23.146C167.19 22.1092 166.501 20.8503 166.011 19.3691C165.521 17.888 165.276 16.2132 165.276 14.3447V12.7725C165.276 10.904 165.515 9.23486 165.994 7.76514C166.484 6.28402 167.173 5.02507 168.062 3.98828C168.95 2.9401 170.004 2.14258 171.223 1.5957C172.454 1.04883 173.804 0.775391 175.273 0.775391C176.789 0.775391 178.156 1.04883 179.375 1.5957C180.605 2.14258 181.659 2.9401 182.537 3.98828C183.425 5.02507 184.103 6.28402 184.57 7.76514C185.049 9.23486 185.288 10.904 185.288 12.7725ZM182.024 14.3447V12.7383C182.024 11.2572 181.87 9.94694 181.562 8.80762C181.266 7.66829 180.828 6.71126 180.247 5.93652C179.666 5.16178 178.953 4.57503 178.11 4.17627C177.279 3.77751 176.333 3.57812 175.273 3.57812C174.248 3.57812 173.319 3.77751 172.488 4.17627C171.667 4.57503 170.961 5.16178 170.369 5.93652C169.788 6.71126 169.338 7.66829 169.019 8.80762C168.7 9.94694 168.54 11.2572 168.54 12.7383V14.3447C168.54 15.8372 168.7 17.1589 169.019 18.3096C169.338 19.4489 169.793 20.4116 170.386 21.1978C170.99 21.9725 171.702 22.5592 172.522 22.958C173.354 23.3568 174.282 23.5562 175.308 23.5562C176.379 23.5562 177.33 23.3568 178.162 22.958C178.993 22.5592 179.694 21.9725 180.264 21.1978C180.845 20.4116 181.283 19.4489 181.58 18.3096C181.876 17.1589 182.024 15.8372 182.024 14.3447Z" fill="black"/>
</svg>
