<svg width="24" height="25" viewBox="0 0 24 25" fill="none" xmlns="http://www.w3.org/2000/svg">
<path d="M21.2935 2.43438C20.6658 1.86316 18.1253 0.0420988 12.461 0.0176878C12.461 0.0176878 5.78343 -0.37777 2.53116 2.57108C0.722142 4.35796 0.0845384 6.9797 0.0153412 10.2264C-0.0538561 13.473 -0.137881 19.5562 5.79825 21.2064H5.8032L5.79825 23.7256C5.79825 23.7256 5.75871 24.746 6.4408 24.9511C7.26128 25.205 7.74566 24.4287 8.53155 23.5938C8.96156 23.1349 9.55468 22.4612 10.0045 21.9485C14.0673 22.2854 17.1861 21.514 17.542 21.4017C18.3625 21.1381 23.0037 20.5522 23.7549 14.469C24.5359 8.19049 23.3793 4.22614 21.2935 2.43438ZM21.9805 14.0101C21.3429 19.0876 17.5816 19.4098 16.8896 19.6295C16.593 19.7222 13.8499 20.396 10.4048 20.1763C10.4048 20.1763 7.83463 23.2374 7.03392 24.0332C6.77196 24.292 6.48529 24.2676 6.49023 23.7549C6.49023 23.4181 6.51 19.5709 6.51 19.5709C6.50506 19.5709 6.50506 19.5709 6.51 19.5709C1.47837 18.1941 1.77493 13.0141 1.8293 10.3045C1.88367 7.59486 2.40265 5.37346 3.93487 3.87951C6.68793 1.414 12.3572 1.78016 12.3572 1.78016C17.1466 1.79969 19.44 3.22529 19.9738 3.70375C21.7383 5.1977 22.6379 8.77147 21.9805 14.0101Z" fill="white"/>
</svg>
