<svg width="14" height="14" viewBox="0 0 14 14" fill="none" xmlns="http://www.w3.org/2000/svg">
<path d="M3.56427 0.65116C3.34256 0.0611457 3.1615 0.0397049 2.81417 0.0158819L2.41806 0C1.96726 0 1.49429 0.142938 1.20903 0.455018C0.861691 0.836185 0 1.72399 0 3.54565C0 5.36731 1.23637 7.12861 1.40413 7.37558C1.5778 7.61381 3.81479 11.4144 7.2889 12.9597C10.0055 14.1691 10.811 14.0571 11.4296 13.915C12.3327 13.7061 13.4648 12.9891 13.7501 12.1235C14.0354 11.2579 14.0354 10.5194 13.9511 10.3606C13.8669 10.2018 13.6385 10.1224 13.2912 9.92781C12.9438 9.73325 11.2559 8.84545 10.9359 8.72554C10.6233 8.59849 10.3248 8.64375 10.0883 9.00189C9.75573 9.50217 9.42835 10.0104 9.16452 10.3153C8.95612 10.5536 8.61543 10.5853 8.33091 10.4583C7.94884 10.2867 6.87875 9.88334 5.55961 8.62152C4.53829 7.64478 3.84361 6.42663 3.64186 6.06135C3.44011 5.68812 3.62117 5.47133 3.7808 5.26963C3.95447 5.03776 4.12075 4.87417 4.29515 4.65818C4.46956 4.44218 4.56637 4.32942 4.67722 4.0761C4.79547 3.83787 4.71196 3.57582 4.62845 3.38921C4.54494 3.2026 3.85027 1.38014 3.56574 0.641631L3.56427 0.65116Z" fill="#2A3B45"/>
</svg>
