<svg width="141" height="17" viewBox="0 0 141 17" fill="none" xmlns="http://www.w3.org/2000/svg">
<path d="M8.23438 6.66406V8.625H0.4375V6.66406H8.23438ZM5.40625 3.57812V11.8594H3.27344V3.57812H5.40625ZM9.69531 8.54688V8.375C9.69531 7.27604 9.8099 6.27865 10.0391 5.38281C10.2734 4.48698 10.5807 3.70052 10.9609 3.02344C11.3464 2.34115 11.7656 1.77604 12.2188 1.32812C12.6719 0.880208 13.1224 0.557292 13.5703 0.359375L14 1.54688C13.7031 1.76562 13.4115 2.06771 13.125 2.45312C12.8385 2.83333 12.5781 3.30208 12.3438 3.85938C12.1146 4.41146 11.9297 5.0625 11.7891 5.8125C11.6484 6.55729 11.5781 7.40625 11.5781 8.35938V8.5625C11.5781 9.51562 11.6484 10.3672 11.7891 11.1172C11.9297 11.862 12.1146 12.513 12.3438 13.0703C12.5781 13.6328 12.8385 14.1068 13.125 14.4922C13.4115 14.8776 13.7031 15.1823 14 15.4062L13.5703 16.5625C13.1224 16.3646 12.6719 16.0417 12.2188 15.5938C11.7656 15.151 11.3464 14.5885 10.9609 13.9062C10.5807 13.2292 10.2734 12.4427 10.0391 11.5469C9.8099 10.6458 9.69531 9.64583 9.69531 8.54688ZM17.3984 6.33594H18.6016C18.987 6.33594 19.3047 6.27083 19.5547 6.14062C19.8047 6.00521 19.9896 5.81771 20.1094 5.57812C20.2344 5.33333 20.2969 5.04948 20.2969 4.72656C20.2969 4.4349 20.2396 4.17708 20.125 3.95312C20.0156 3.72396 19.8464 3.54688 19.6172 3.42188C19.388 3.29167 19.099 3.22656 18.75 3.22656C18.474 3.22656 18.2188 3.28125 17.9844 3.39062C17.75 3.5 17.5625 3.65365 17.4219 3.85156C17.2812 4.04948 17.2109 4.28906 17.2109 4.57031H14.9531C14.9531 3.94531 15.1198 3.40104 15.4531 2.9375C15.7917 2.47396 16.2448 2.11198 16.8125 1.85156C17.3802 1.59115 18.0052 1.46094 18.6875 1.46094C19.4583 1.46094 20.1328 1.58594 20.7109 1.83594C21.2891 2.08073 21.7396 2.44271 22.0625 2.92188C22.3854 3.40104 22.5469 3.99479 22.5469 4.70312C22.5469 5.0625 22.4635 5.41146 22.2969 5.75C22.1302 6.08333 21.8906 6.38542 21.5781 6.65625C21.2708 6.92188 20.8958 7.13542 20.4531 7.29688C20.0104 7.45312 19.513 7.53125 18.9609 7.53125H17.3984V6.33594ZM17.3984 8.04688V6.88281H18.9609C19.5807 6.88281 20.125 6.95312 20.5938 7.09375C21.0625 7.23438 21.4557 7.4375 21.7734 7.70312C22.0911 7.96354 22.3307 8.27344 22.4922 8.63281C22.6536 8.98698 22.7344 9.38021 22.7344 9.8125C22.7344 10.3438 22.6328 10.8177 22.4297 11.2344C22.2266 11.6458 21.9401 11.9948 21.5703 12.2812C21.2057 12.5677 20.7786 12.7865 20.2891 12.9375C19.7995 13.0833 19.2656 13.1562 18.6875 13.1562C18.2083 13.1562 17.737 13.0911 17.2734 12.9609C16.8151 12.8255 16.3984 12.625 16.0234 12.3594C15.6536 12.0885 15.3568 11.75 15.1328 11.3438C14.9141 10.9323 14.8047 10.4453 14.8047 9.88281H17.0625C17.0625 10.1745 17.1354 10.4349 17.2812 10.6641C17.4271 10.8932 17.6276 11.0729 17.8828 11.2031C18.1432 11.3333 18.4323 11.3984 18.75 11.3984C19.1094 11.3984 19.4167 11.3333 19.6719 11.2031C19.9323 11.0677 20.1302 10.8802 20.2656 10.6406C20.4062 10.3958 20.4766 10.112 20.4766 9.78906C20.4766 9.3724 20.401 9.03906 20.25 8.78906C20.099 8.53385 19.8828 8.34635 19.6016 8.22656C19.3203 8.10677 18.987 8.04688 18.6016 8.04688H17.3984ZM32.0078 1.625V2.83594L27.6094 13H25.2344L29.6328 3.38281H23.9688V1.625H32.0078ZM35.7734 6.33594H36.9766C37.362 6.33594 37.6797 6.27083 37.9297 6.14062C38.1797 6.00521 38.3646 5.81771 38.4844 5.57812C38.6094 5.33333 38.6719 5.04948 38.6719 4.72656C38.6719 4.4349 38.6146 4.17708 38.5 3.95312C38.3906 3.72396 38.2214 3.54688 37.9922 3.42188C37.763 3.29167 37.474 3.22656 37.125 3.22656C36.849 3.22656 36.5938 3.28125 36.3594 3.39062C36.125 3.5 35.9375 3.65365 35.7969 3.85156C35.6562 4.04948 35.5859 4.28906 35.5859 4.57031H33.3281C33.3281 3.94531 33.4948 3.40104 33.8281 2.9375C34.1667 2.47396 34.6198 2.11198 35.1875 1.85156C35.7552 1.59115 36.3802 1.46094 37.0625 1.46094C37.8333 1.46094 38.5078 1.58594 39.0859 1.83594C39.6641 2.08073 40.1146 2.44271 40.4375 2.92188C40.7604 3.40104 40.9219 3.99479 40.9219 4.70312C40.9219 5.0625 40.8385 5.41146 40.6719 5.75C40.5052 6.08333 40.2656 6.38542 39.9531 6.65625C39.6458 6.92188 39.2708 7.13542 38.8281 7.29688C38.3854 7.45312 37.888 7.53125 37.3359 7.53125H35.7734V6.33594ZM35.7734 8.04688V6.88281H37.3359C37.9557 6.88281 38.5 6.95312 38.9688 7.09375C39.4375 7.23438 39.8307 7.4375 40.1484 7.70312C40.4661 7.96354 40.7057 8.27344 40.8672 8.63281C41.0286 8.98698 41.1094 9.38021 41.1094 9.8125C41.1094 10.3438 41.0078 10.8177 40.8047 11.2344C40.6016 11.6458 40.3151 11.9948 39.9453 12.2812C39.5807 12.5677 39.1536 12.7865 38.6641 12.9375C38.1745 13.0833 37.6406 13.1562 37.0625 13.1562C36.5833 13.1562 36.112 13.0911 35.6484 12.9609C35.1901 12.8255 34.7734 12.625 34.3984 12.3594C34.0286 12.0885 33.7318 11.75 33.5078 11.3438C33.2891 10.9323 33.1797 10.4453 33.1797 9.88281H35.4375C35.4375 10.1745 35.5104 10.4349 35.6562 10.6641C35.8021 10.8932 36.0026 11.0729 36.2578 11.2031C36.5182 11.3333 36.8073 11.3984 37.125 11.3984C37.4844 11.3984 37.7917 11.3333 38.0469 11.2031C38.3073 11.0677 38.5052 10.8802 38.6406 10.6406C38.7812 10.3958 38.8516 10.112 38.8516 9.78906C38.8516 9.3724 38.776 9.03906 38.625 8.78906C38.474 8.53385 38.2578 8.34635 37.9766 8.22656C37.6953 8.10677 37.362 8.04688 36.9766 8.04688H35.7734ZM46.6172 8.375V8.54688C46.6172 9.60938 46.4974 10.5885 46.2578 11.4844C46.0182 12.375 45.7005 13.1641 45.3047 13.8516C44.9141 14.5443 44.4844 15.1198 44.0156 15.5781C43.5521 16.0365 43.0885 16.3646 42.625 16.5625L42.1875 15.4062C42.4844 15.1875 42.7734 14.8854 43.0547 14.5C43.3411 14.1146 43.6016 13.6406 43.8359 13.0781C44.0703 12.5208 44.2552 11.8672 44.3906 11.1172C44.5312 10.3672 44.6016 9.51562 44.6016 8.5625V8.35938C44.6016 7.40625 44.5312 6.55469 44.3906 5.80469C44.25 5.05469 44.0599 4.40104 43.8203 3.84375C43.5859 3.28125 43.3255 2.8099 43.0391 2.42969C42.7578 2.04427 42.474 1.74219 42.1875 1.52344L42.625 0.359375C43.0885 0.557292 43.5521 0.888021 44.0156 1.35156C44.4844 1.8099 44.9141 2.38281 45.3047 3.07031C45.7005 3.75781 46.0182 4.54948 46.2578 5.44531C46.4974 6.33594 46.6172 7.3125 46.6172 8.375ZM60.0469 11.2422V13H52.2656V11.5L55.9453 7.55469C56.3151 7.14323 56.6068 6.78125 56.8203 6.46875C57.0339 6.15104 57.1875 5.86719 57.2812 5.61719C57.3802 5.36198 57.4297 5.11979 57.4297 4.89062C57.4297 4.54688 57.3724 4.2526 57.2578 4.00781C57.1432 3.75781 56.974 3.5651 56.75 3.42969C56.5312 3.29427 56.2604 3.22656 55.9375 3.22656C55.5938 3.22656 55.2969 3.3099 55.0469 3.47656C54.8021 3.64323 54.6146 3.875 54.4844 4.17188C54.3594 4.46875 54.2969 4.80469 54.2969 5.17969H52.0391C52.0391 4.5026 52.2005 3.88281 52.5234 3.32031C52.8464 2.7526 53.3021 2.30208 53.8906 1.96875C54.4792 1.63021 55.1771 1.46094 55.9844 1.46094C56.7812 1.46094 57.4531 1.59115 58 1.85156C58.5521 2.10677 58.9688 2.47656 59.25 2.96094C59.5365 3.4401 59.6797 4.01302 59.6797 4.67969C59.6797 5.05469 59.6198 5.42188 59.5 5.78125C59.3802 6.13542 59.2083 6.48958 58.9844 6.84375C58.7656 7.19271 58.5 7.54688 58.1875 7.90625C57.875 8.26562 57.5286 8.63802 57.1484 9.02344L55.1719 11.2422H60.0469ZM69.2344 11.2422V13H61.4531V11.5L65.1328 7.55469C65.5026 7.14323 65.7943 6.78125 66.0078 6.46875C66.2214 6.15104 66.375 5.86719 66.4688 5.61719C66.5677 5.36198 66.6172 5.11979 66.6172 4.89062C66.6172 4.54688 66.5599 4.2526 66.4453 4.00781C66.3307 3.75781 66.1615 3.5651 65.9375 3.42969C65.7188 3.29427 65.4479 3.22656 65.125 3.22656C64.7812 3.22656 64.4844 3.3099 64.2344 3.47656C63.9896 3.64323 63.8021 3.875 63.6719 4.17188C63.5469 4.46875 63.4844 4.80469 63.4844 5.17969H61.2266C61.2266 4.5026 61.388 3.88281 61.7109 3.32031C62.0339 2.7526 62.4896 2.30208 63.0781 1.96875C63.6667 1.63021 64.3646 1.46094 65.1719 1.46094C65.9688 1.46094 66.6406 1.59115 67.1875 1.85156C67.7396 2.10677 68.1562 2.47656 68.4375 2.96094C68.724 3.4401 68.8672 4.01302 68.8672 4.67969C68.8672 5.05469 68.8073 5.42188 68.6875 5.78125C68.5677 6.13542 68.3958 6.48958 68.1719 6.84375C67.9531 7.19271 67.6875 7.54688 67.375 7.90625C67.0625 8.26562 66.7161 8.63802 66.3359 9.02344L64.3594 11.2422H69.2344ZM82.2891 9.88281C82.2891 10.5964 82.1224 11.1979 81.7891 11.6875C81.4557 12.1719 80.9974 12.5391 80.4141 12.7891C79.8359 13.0339 79.1797 13.1562 78.4453 13.1562C77.7109 13.1562 77.0521 13.0339 76.4688 12.7891C75.8854 12.5391 75.4245 12.1719 75.0859 11.6875C74.7474 11.1979 74.5781 10.5964 74.5781 9.88281C74.5781 9.40365 74.6745 8.97135 74.8672 8.58594C75.0599 8.19531 75.3281 7.86198 75.6719 7.58594C76.0208 7.30469 76.4297 7.09115 76.8984 6.94531C77.3672 6.79427 77.8776 6.71875 78.4297 6.71875C79.1693 6.71875 79.8307 6.84896 80.4141 7.10938C80.9974 7.36979 81.4557 7.73698 81.7891 8.21094C82.1224 8.6849 82.2891 9.24219 82.2891 9.88281ZM80.0234 9.73438C80.0234 9.38542 79.9557 9.08594 79.8203 8.83594C79.6901 8.58073 79.5052 8.38542 79.2656 8.25C79.026 8.11458 78.7474 8.04688 78.4297 8.04688C78.112 8.04688 77.8333 8.11458 77.5938 8.25C77.3542 8.38542 77.1667 8.58073 77.0312 8.83594C76.901 9.08594 76.8359 9.38542 76.8359 9.73438C76.8359 10.0781 76.901 10.375 77.0312 10.625C77.1667 10.875 77.3542 11.0677 77.5938 11.2031C77.8385 11.3333 78.1224 11.3984 78.4453 11.3984C78.7682 11.3984 79.0469 11.3333 79.2812 11.2031C79.5208 11.0677 79.7031 10.875 79.8281 10.625C79.9583 10.375 80.0234 10.0781 80.0234 9.73438ZM82.0469 4.64062C82.0469 5.21875 81.8932 5.73177 81.5859 6.17969C81.2786 6.6224 80.8516 6.96875 80.3047 7.21875C79.763 7.46875 79.1432 7.59375 78.4453 7.59375C77.7422 7.59375 77.1172 7.46875 76.5703 7.21875C76.0234 6.96875 75.5964 6.6224 75.2891 6.17969C74.9818 5.73177 74.8281 5.21875 74.8281 4.64062C74.8281 3.95312 74.9818 3.375 75.2891 2.90625C75.6016 2.43229 76.0286 2.07292 76.5703 1.82812C77.1172 1.58333 77.737 1.46094 78.4297 1.46094C79.1328 1.46094 79.7552 1.58333 80.2969 1.82812C80.8438 2.07292 81.2708 2.43229 81.5781 2.90625C81.8906 3.375 82.0469 3.95312 82.0469 4.64062ZM79.7969 4.74219C79.7969 4.4349 79.7422 4.16927 79.6328 3.94531C79.5234 3.71615 79.3672 3.53906 79.1641 3.41406C78.9661 3.28906 78.7214 3.22656 78.4297 3.22656C78.1484 3.22656 77.9062 3.28646 77.7031 3.40625C77.5052 3.52604 77.3516 3.70052 77.2422 3.92969C77.138 4.15365 77.0859 4.42448 77.0859 4.74219C77.0859 5.04948 77.138 5.32031 77.2422 5.55469C77.3516 5.78385 77.5078 5.96354 77.7109 6.09375C77.9141 6.22396 78.1589 6.28906 78.4453 6.28906C78.7318 6.28906 78.974 6.22396 79.1719 6.09375C79.375 5.96354 79.5286 5.78385 79.6328 5.55469C79.7422 5.32031 79.7969 5.04948 79.7969 4.74219ZM86.1172 6.33594H87.3203C87.7057 6.33594 88.0234 6.27083 88.2734 6.14062C88.5234 6.00521 88.7083 5.81771 88.8281 5.57812C88.9531 5.33333 89.0156 5.04948 89.0156 4.72656C89.0156 4.4349 88.9583 4.17708 88.8438 3.95312C88.7344 3.72396 88.5651 3.54688 88.3359 3.42188C88.1068 3.29167 87.8177 3.22656 87.4688 3.22656C87.1927 3.22656 86.9375 3.28125 86.7031 3.39062C86.4688 3.5 86.2812 3.65365 86.1406 3.85156C86 4.04948 85.9297 4.28906 85.9297 4.57031H83.6719C83.6719 3.94531 83.8385 3.40104 84.1719 2.9375C84.5104 2.47396 84.9635 2.11198 85.5312 1.85156C86.099 1.59115 86.724 1.46094 87.4062 1.46094C88.1771 1.46094 88.8516 1.58594 89.4297 1.83594C90.0078 2.08073 90.4583 2.44271 90.7812 2.92188C91.1042 3.40104 91.2656 3.99479 91.2656 4.70312C91.2656 5.0625 91.1823 5.41146 91.0156 5.75C90.849 6.08333 90.6094 6.38542 90.2969 6.65625C89.9896 6.92188 89.6146 7.13542 89.1719 7.29688C88.7292 7.45312 88.2318 7.53125 87.6797 7.53125H86.1172V6.33594ZM86.1172 8.04688V6.88281H87.6797C88.2995 6.88281 88.8438 6.95312 89.3125 7.09375C89.7812 7.23438 90.1745 7.4375 90.4922 7.70312C90.8099 7.96354 91.0495 8.27344 91.2109 8.63281C91.3724 8.98698 91.4531 9.38021 91.4531 9.8125C91.4531 10.3438 91.3516 10.8177 91.1484 11.2344C90.9453 11.6458 90.6589 11.9948 90.2891 12.2812C89.9245 12.5677 89.4974 12.7865 89.0078 12.9375C88.5182 13.0833 87.9844 13.1562 87.4062 13.1562C86.9271 13.1562 86.4557 13.0911 85.9922 12.9609C85.5339 12.8255 85.1172 12.625 84.7422 12.3594C84.3724 12.0885 84.0755 11.75 83.8516 11.3438C83.6328 10.9323 83.5234 10.4453 83.5234 9.88281H85.7812C85.7812 10.1745 85.8542 10.4349 86 10.6641C86.1458 10.8932 86.3464 11.0729 86.6016 11.2031C86.862 11.3333 87.151 11.3984 87.4688 11.3984C87.8281 11.3984 88.1354 11.3333 88.3906 11.2031C88.651 11.0677 88.849 10.8802 88.9844 10.6406C89.125 10.3958 89.1953 10.112 89.1953 9.78906C89.1953 9.3724 89.1198 9.03906 88.9688 8.78906C88.8177 8.53385 88.6016 8.34635 88.3203 8.22656C88.0391 8.10677 87.7057 8.04688 87.3203 8.04688H86.1172ZM97.5312 7.23438V9H93.1172V7.23438H97.5312ZM106.977 9.88281C106.977 10.5964 106.81 11.1979 106.477 11.6875C106.143 12.1719 105.685 12.5391 105.102 12.7891C104.523 13.0339 103.867 13.1562 103.133 13.1562C102.398 13.1562 101.74 13.0339 101.156 12.7891C100.573 12.5391 100.112 12.1719 99.7734 11.6875C99.4349 11.1979 99.2656 10.5964 99.2656 9.88281C99.2656 9.40365 99.362 8.97135 99.5547 8.58594C99.7474 8.19531 100.016 7.86198 100.359 7.58594C100.708 7.30469 101.117 7.09115 101.586 6.94531C102.055 6.79427 102.565 6.71875 103.117 6.71875C103.857 6.71875 104.518 6.84896 105.102 7.10938C105.685 7.36979 106.143 7.73698 106.477 8.21094C106.81 8.6849 106.977 9.24219 106.977 9.88281ZM104.711 9.73438C104.711 9.38542 104.643 9.08594 104.508 8.83594C104.378 8.58073 104.193 8.38542 103.953 8.25C103.714 8.11458 103.435 8.04688 103.117 8.04688C102.799 8.04688 102.521 8.11458 102.281 8.25C102.042 8.38542 101.854 8.58073 101.719 8.83594C101.589 9.08594 101.523 9.38542 101.523 9.73438C101.523 10.0781 101.589 10.375 101.719 10.625C101.854 10.875 102.042 11.0677 102.281 11.2031C102.526 11.3333 102.81 11.3984 103.133 11.3984C103.456 11.3984 103.734 11.3333 103.969 11.2031C104.208 11.0677 104.391 10.875 104.516 10.625C104.646 10.375 104.711 10.0781 104.711 9.73438ZM106.734 4.64062C106.734 5.21875 106.581 5.73177 106.273 6.17969C105.966 6.6224 105.539 6.96875 104.992 7.21875C104.451 7.46875 103.831 7.59375 103.133 7.59375C102.43 7.59375 101.805 7.46875 101.258 7.21875C100.711 6.96875 100.284 6.6224 99.9766 6.17969C99.6693 5.73177 99.5156 5.21875 99.5156 4.64062C99.5156 3.95312 99.6693 3.375 99.9766 2.90625C100.289 2.43229 100.716 2.07292 101.258 1.82812C101.805 1.58333 102.424 1.46094 103.117 1.46094C103.82 1.46094 104.443 1.58333 104.984 1.82812C105.531 2.07292 105.958 2.43229 106.266 2.90625C106.578 3.375 106.734 3.95312 106.734 4.64062ZM104.484 4.74219C104.484 4.4349 104.43 4.16927 104.32 3.94531C104.211 3.71615 104.055 3.53906 103.852 3.41406C103.654 3.28906 103.409 3.22656 103.117 3.22656C102.836 3.22656 102.594 3.28646 102.391 3.40625C102.193 3.52604 102.039 3.70052 101.93 3.92969C101.826 4.15365 101.773 4.42448 101.773 4.74219C101.773 5.04948 101.826 5.32031 101.93 5.55469C102.039 5.78385 102.195 5.96354 102.398 6.09375C102.602 6.22396 102.846 6.28906 103.133 6.28906C103.419 6.28906 103.661 6.22396 103.859 6.09375C104.062 5.96354 104.216 5.78385 104.32 5.55469C104.43 5.32031 104.484 5.04948 104.484 4.74219ZM116.227 1.625V2.83594L111.828 13H109.453L113.852 3.38281H108.188V1.625H116.227ZM122.219 7.23438V9H117.805V7.23438H122.219ZM131.664 9.88281C131.664 10.5964 131.497 11.1979 131.164 11.6875C130.831 12.1719 130.372 12.5391 129.789 12.7891C129.211 13.0339 128.555 13.1562 127.82 13.1562C127.086 13.1562 126.427 13.0339 125.844 12.7891C125.26 12.5391 124.799 12.1719 124.461 11.6875C124.122 11.1979 123.953 10.5964 123.953 9.88281C123.953 9.40365 124.049 8.97135 124.242 8.58594C124.435 8.19531 124.703 7.86198 125.047 7.58594C125.396 7.30469 125.805 7.09115 126.273 6.94531C126.742 6.79427 127.253 6.71875 127.805 6.71875C128.544 6.71875 129.206 6.84896 129.789 7.10938C130.372 7.36979 130.831 7.73698 131.164 8.21094C131.497 8.6849 131.664 9.24219 131.664 9.88281ZM129.398 9.73438C129.398 9.38542 129.331 9.08594 129.195 8.83594C129.065 8.58073 128.88 8.38542 128.641 8.25C128.401 8.11458 128.122 8.04688 127.805 8.04688C127.487 8.04688 127.208 8.11458 126.969 8.25C126.729 8.38542 126.542 8.58073 126.406 8.83594C126.276 9.08594 126.211 9.38542 126.211 9.73438C126.211 10.0781 126.276 10.375 126.406 10.625C126.542 10.875 126.729 11.0677 126.969 11.2031C127.214 11.3333 127.497 11.3984 127.82 11.3984C128.143 11.3984 128.422 11.3333 128.656 11.2031C128.896 11.0677 129.078 10.875 129.203 10.625C129.333 10.375 129.398 10.0781 129.398 9.73438ZM131.422 4.64062C131.422 5.21875 131.268 5.73177 130.961 6.17969C130.654 6.6224 130.227 6.96875 129.68 7.21875C129.138 7.46875 128.518 7.59375 127.82 7.59375C127.117 7.59375 126.492 7.46875 125.945 7.21875C125.398 6.96875 124.971 6.6224 124.664 6.17969C124.357 5.73177 124.203 5.21875 124.203 4.64062C124.203 3.95312 124.357 3.375 124.664 2.90625C124.977 2.43229 125.404 2.07292 125.945 1.82812C126.492 1.58333 127.112 1.46094 127.805 1.46094C128.508 1.46094 129.13 1.58333 129.672 1.82812C130.219 2.07292 130.646 2.43229 130.953 2.90625C131.266 3.375 131.422 3.95312 131.422 4.64062ZM129.172 4.74219C129.172 4.4349 129.117 4.16927 129.008 3.94531C128.898 3.71615 128.742 3.53906 128.539 3.41406C128.341 3.28906 128.096 3.22656 127.805 3.22656C127.523 3.22656 127.281 3.28646 127.078 3.40625C126.88 3.52604 126.727 3.70052 126.617 3.92969C126.513 4.15365 126.461 4.42448 126.461 4.74219C126.461 5.04948 126.513 5.32031 126.617 5.55469C126.727 5.78385 126.883 5.96354 127.086 6.09375C127.289 6.22396 127.534 6.28906 127.82 6.28906C128.107 6.28906 128.349 6.22396 128.547 6.09375C128.75 5.96354 128.904 5.78385 129.008 5.55469C129.117 5.32031 129.172 5.04948 129.172 4.74219ZM140.914 1.625V2.83594L136.516 13H134.141L138.539 3.38281H132.875V1.625H140.914Z" fill="white"/>
</svg>
