<svg width="23" height="25" viewBox="0 0 23 25" fill="none" xmlns="http://www.w3.org/2000/svg">
<path d="M1.66412 4.60521L0.332031 7.23678V9.86836V11.842V13.8157L0.998074 16.4473L2.33016 18.421L4.99433 19.7368V23.0263C4.99433 24.6052 6.32641 24.342 6.99245 23.6842L9.65662 20.3947H11.6547H13.6529H16.317C16.8499 20.3947 17.8711 19.9561 18.3152 19.7368L19.6473 18.421L20.9793 17.7631L22.3114 15.7894V13.8157V11.842V9.21047L21.6454 7.89468V5.92099L20.3133 3.94731L19.6473 2.63152L17.6491 1.31573L15.651 0.657837H12.3208H8.32454L4.99433 1.31573L2.9962 2.63152L1.66412 4.60521Z" fill="white"/>
</svg>
