<svg width="14" height="14" viewBox="0 0 14 14" fill="none" xmlns="http://www.w3.org/2000/svg">
<path d="M9.47243 6.09378C9.4922 6.51365 10.1298 6.48435 10.11 6.06448C10.0408 4.66329 9.27473 3.88214 7.89572 3.80891C7.4756 3.7845 7.43606 4.4143 7.86112 4.43871C8.90897 4.4973 9.41806 5.01969 9.47243 6.09378Z" fill="#2A3B45"/>
<path d="M7.36686 2.74459C9.85302 2.92523 11.1628 4.54612 11.1134 6.61617C11.1035 7.03116 11.7461 7.05069 11.751 6.63082C11.8054 4.26783 10.2781 2.31984 7.41134 2.11478C6.99121 2.08549 6.94673 2.71529 7.36686 2.74459Z" fill="#2A3B45"/>
<path d="M12.7988 7.27527C12.7988 7.69514 13.4414 7.69025 13.4364 7.27039C13.4018 2.98381 10.4708 0.498776 6.82811 0.474365C6.40798 0.474365 6.40798 1.09929 6.82811 1.10417C10.0853 1.12858 12.7692 3.29628 12.7988 7.27527Z" fill="#2A3B45"/>
<path d="M12.8779 12.0696V12.0598C13.1152 11.6107 13.0361 11.1859 12.6901 10.9076C12.0772 10.3364 11.1529 9.7066 10.4264 9.30138C9.88762 9.00357 9.33898 9.18909 9.11162 9.48202L8.63712 10.0679C8.39493 10.3657 7.94515 10.3266 7.94515 10.3266C4.65828 9.49667 3.77849 6.21095 3.77849 6.21095C3.77849 6.21095 3.73894 5.76667 4.04045 5.52744L4.63357 5.05875C4.93013 4.83417 5.11795 4.29225 4.81644 3.76009C4.64345 3.46227 4.31229 2.93011 4.06516 2.59812C3.8032 2.24172 3.19031 1.51916 3.19031 1.51916C2.89869 1.17252 2.46374 1.0944 2.00901 1.32875H1.99913C1.05508 1.85603 0.0220621 2.84223 0.35322 3.85773C0.35322 3.85773 0.585526 4.69747 1.63831 6.57711C2.13752 7.47544 2.65156 8.22241 3.16065 8.85222C3.72412 9.56014 4.45563 10.2973 5.25634 10.9223C6.80834 12.1428 9.26484 13.3927 10.3077 13.6807L10.3176 13.6954C11.3457 14.0225 12.3441 12.9972 12.8779 12.0696Z" fill="#2A3B45"/>
</svg>
