<svg width="45" height="11" viewBox="0 0 45 11" fill="none" xmlns="http://www.w3.org/2000/svg">
<path opacity="0.4" d="M0.764 10V0.199999H8.828V10H8.114V0.62L8.324 0.843999H1.268L1.478 0.62V10H0.764ZM15.0178 10.056C14.3178 10.056 13.6924 9.89733 13.1418 9.58C12.6004 9.26267 12.1664 8.824 11.8398 8.264C11.5224 7.704 11.3638 7.06467 11.3638 6.346C11.3638 5.618 11.5224 4.97867 11.8398 4.428C12.1664 3.868 12.6004 3.42933 13.1418 3.112C13.6924 2.79467 14.3178 2.636 15.0178 2.636C15.7178 2.636 16.3431 2.79467 16.8938 3.112C17.4444 3.42933 17.8784 3.868 18.1958 4.428C18.5131 4.97867 18.6718 5.618 18.6718 6.346C18.6718 7.06467 18.5131 7.704 18.1958 8.264C17.8784 8.824 17.4444 9.26267 16.8938 9.58C16.3431 9.89733 15.7178 10.056 15.0178 10.056ZM15.0178 9.426C15.5778 9.426 16.0818 9.3 16.5298 9.048C16.9778 8.78667 17.3278 8.42267 17.5798 7.956C17.8318 7.48933 17.9578 6.95267 17.9578 6.346C17.9578 5.73 17.8318 5.19333 17.5798 4.736C17.3278 4.26933 16.9778 3.91 16.5298 3.658C16.0818 3.39667 15.5778 3.266 15.0178 3.266C14.4578 3.266 13.9538 3.39667 13.5058 3.658C13.0671 3.91 12.7171 4.26933 12.4558 4.736C12.2038 5.19333 12.0778 5.73 12.0778 6.346C12.0778 6.95267 12.2038 7.48933 12.4558 7.956C12.7171 8.42267 13.0671 8.78667 13.5058 9.048C13.9538 9.3 14.4578 9.426 15.0178 9.426ZM20.9515 10V2.692H21.6515V8.922L26.8595 2.692H27.4755V10H26.7755V3.77L21.5675 10H20.9515ZM33.4484 10.056C32.7391 10.056 32.1044 9.89733 31.5444 9.58C30.9938 9.26267 30.5551 8.824 30.2284 8.264C29.9111 7.704 29.7524 7.06467 29.7524 6.346C29.7524 5.618 29.9111 4.974 30.2284 4.414C30.5551 3.854 30.9938 3.42 31.5444 3.112C32.1044 2.79467 32.7391 2.636 33.4484 2.636C34.0364 2.636 34.5684 2.748 35.0444 2.972C35.5298 3.196 35.9218 3.532 36.2204 3.98L35.7024 4.358C35.4411 3.98467 35.1144 3.70933 34.7224 3.532C34.3304 3.35467 33.9058 3.266 33.4484 3.266C32.8791 3.266 32.3658 3.39667 31.9084 3.658C31.4604 3.91 31.1058 4.26933 30.8444 4.736C30.5924 5.19333 30.4664 5.73 30.4664 6.346C30.4664 6.962 30.5924 7.50333 30.8444 7.97C31.1058 8.42733 31.4604 8.78667 31.9084 9.048C32.3658 9.3 32.8791 9.426 33.4484 9.426C33.9058 9.426 34.3304 9.33733 34.7224 9.16C35.1144 8.98267 35.4411 8.70733 35.7024 8.334L36.2204 8.712C35.9218 9.16 35.5298 9.496 35.0444 9.72C34.5684 9.944 34.0364 10.056 33.4484 10.056ZM43.6774 10L40.5414 6.346L41.1294 6.01L44.5174 10H43.6774ZM38.2874 10V2.692H38.9874V10H38.2874ZM38.7634 6.612V6.01H41.0594V6.612H38.7634ZM41.1714 6.416L40.5274 6.304L43.5234 2.692H44.2934L41.1714 6.416Z" fill="#1D252E"/>
</svg>
